<?xml version="1.0" encoding="utf-8"?>
<!-- Generator: Adobe Illustrator 16.0.0, SVG Export Plug-In . SVG Version: 6.00 Build 0)  -->
<!DOCTYPE svg PUBLIC "-//W3C//DTD SVG 1.1//EN" "http://www.w3.org/Graphics/SVG/1.1/DTD/svg11.dtd">
<svg version="1.1" id="Layer_1" xmlns="http://www.w3.org/2000/svg" xmlns:xlink="http://www.w3.org/1999/xlink" x="0px" y="0px"
	 width="50.373px" height="32px" viewBox="0 0 50.373 32" enable-background="new 0 0 50.373 32" xml:space="preserve">
<g>
	<path d="M0.043,15.199C0.177,6.958,7.758-0.261,16,0.013c3.949-0.183,7.661,1.536,10.685,3.949c-1.292,1.466-2.626,2.88-4.056,4.2
		c-3.634-2.51-8.806-3.23-12.444-0.327C4.983,11.433,4.747,19.929,9.75,23.8c4.867,4.418,14.063,2.225,15.408-4.535
		c-3.048-0.046-6.103,0-9.149-0.098C16,17.346,15.992,15.526,16,13.71c5.093-0.016,10.19-0.024,15.291,0.015
		c0.308,4.278-0.258,8.832-2.888,12.365c-3.979,5.602-11.967,7.237-18.201,4.839C3.945,28.544-0.486,21.938,0.043,15.199"/>
	<path d="M41.231,9.119h4.544c0.007,1.52,0.015,3.047,0.029,4.567c1.519,0.017,3.053,0.017,4.568,0.032v4.544
		c-1.516,0.015-3.042,0.021-4.568,0.039c-0.015,1.525-0.022,3.05-0.029,4.567h-4.557c-0.01-1.518-0.01-3.042-0.027-4.559
		c-1.519-0.019-3.047-0.033-4.565-0.048v-4.544c1.519-0.015,3.037-0.024,4.565-0.032C41.201,12.158,41.214,10.639,41.231,9.119"/>
</g>
</svg>
