<?xml version="1.0" encoding="utf-8"?>
<!-- Generator: Adobe Illustrator 16.0.0, SVG Export Plug-In . SVG Version: 6.00 Build 0)  -->
<!DOCTYPE svg PUBLIC "-//W3C//DTD SVG 1.1//EN" "http://www.w3.org/Graphics/SVG/1.1/DTD/svg11.dtd">
<svg version="1.1" id="Layer_1" xmlns="http://www.w3.org/2000/svg" xmlns:xlink="http://www.w3.org/1999/xlink" x="0px" y="0px"
	 width="21.332px" height="32px" viewBox="0 0 21.332 32" enable-background="new 0 0 21.332 32" xml:space="preserve">
<g>
	<rect x="7.664" y="5.859" width="6.309" height="1.802"/>
	<path d="M20.499,7.521c-0.039-0.957-0.848-1.701-1.805-1.663h-2.018v1.802h2.018l0.84,22.532H1.805L2.64,7.661h2.319V5.859H2.64
		C1.683,5.82,0.875,6.565,0.835,7.521L0.002,30.283c-0.025,0.474,0.159,0.936,0.505,1.263c0.352,0.322,0.821,0.485,1.297,0.449
		h17.725c0.481,0.021,0.95-0.156,1.298-0.491c0.338-0.324,0.522-0.778,0.504-1.247L20.499,7.521z"/>
	<path d="M4.636,10.365c0.003,0.926,0.755,1.675,1.682,1.671c0.926-0.003,1.673-0.757,1.671-1.683
		c-0.002-0.57-0.295-1.1-0.776-1.407V5.859c0-1.911,1.542-4.056,3.606-4.056c2.063,0,3.604,2.141,3.604,4.056v3.086
		c-0.78,0.498-1.009,1.534-0.511,2.315c0.497,0.781,1.534,1.009,2.315,0.513c0.779-0.498,1.009-1.535,0.511-2.316
		c-0.13-0.206-0.306-0.381-0.511-0.512V5.859C16.227,2.736,13.685,0,10.818,0S5.411,2.736,5.411,5.859v3.086
		C4.927,9.256,4.634,9.791,4.636,10.365z"/>
</g>
</svg>
