<?xml version="1.0" encoding="utf-8"?>
<!-- Generator: Adobe Illustrator 16.0.0, SVG Export Plug-In . SVG Version: 6.00 Build 0)  -->
<!DOCTYPE svg PUBLIC "-//W3C//DTD SVG 1.1//EN" "http://www.w3.org/Graphics/SVG/1.1/DTD/svg11.dtd">
<svg version="1.1" id="Layer_1" xmlns="http://www.w3.org/2000/svg" xmlns:xlink="http://www.w3.org/1999/xlink" x="0px" y="0px"
	 width="32px" height="32px" viewBox="0 0 32 32" enable-background="new 0 0 32 32" xml:space="preserve">
<path d="M4.107,0h23.785C30.151,0,32,1.848,32,4.107v23.787C32,30.15,30.151,32,27.893,32H4.107C1.848,32,0,30.15,0,27.894V4.107
	C0,1.847,1.848,0,4.107,0L4.107,0z M23.312,3.555c-0.793,0-1.441,0.648-1.441,1.44v3.448c0,0.793,0.648,1.441,1.441,1.441h3.616
	c0.792,0,1.441-0.648,1.441-1.441V4.995c0-0.793-0.649-1.44-1.441-1.44H23.312L23.312,3.555z M28.383,13.533h-2.817
	c0.268,0.87,0.411,1.792,0.411,2.745c0,5.323-4.454,9.638-9.946,9.638c-5.493,0-9.946-4.314-9.946-9.638
	c0-0.954,0.144-1.875,0.411-2.745H3.557V27.05c0,0.7,0.571,1.272,1.271,1.272h22.284c0.7,0,1.271-0.572,1.271-1.272V13.533
	L28.383,13.533z M16.03,9.704c-3.549,0-6.426,2.788-6.426,6.227c0,3.439,2.877,6.228,6.426,6.228s6.427-2.788,6.427-6.228
	C22.457,12.492,19.579,9.704,16.03,9.704z"/>
</svg>
