<?xml version="1.0" encoding="utf-8"?>
<!-- Generator: Adobe Illustrator 16.0.0, SVG Export Plug-In . SVG Version: 6.00 Build 0)  -->
<!DOCTYPE svg PUBLIC "-//W3C//DTD SVG 1.1//EN" "http://www.w3.org/Graphics/SVG/1.1/DTD/svg11.dtd">
<svg version="1.1" id="Layer_1" xmlns="http://www.w3.org/2000/svg" xmlns:xlink="http://www.w3.org/1999/xlink" x="0px" y="0px"
	 width="28.195px" height="32px" viewBox="0 0 28.195 32" enable-background="new 0 0 28.195 32" xml:space="preserve">
<path d="M28.195,28.709l-7.532-7.53c1.515-1.953,2.425-4.398,2.425-7.06c0-6.375-5.168-11.544-11.544-11.544
	C5.168,2.575,0,7.743,0,14.119s5.168,11.543,11.544,11.543c2.992,0,5.709-1.148,7.76-3.015l7.478,7.476L28.195,28.709z
	 M11.544,23.662C6.281,23.662,2,19.381,2,14.119c0-5.263,4.281-9.544,9.544-9.544c5.262,0,9.544,4.281,9.544,9.544
	C21.088,19.381,16.806,23.662,11.544,23.662z"/>
</svg>
