<?xml version="1.0" encoding="utf-8"?>
<!-- Generator: Adobe Illustrator 16.0.0, SVG Export Plug-In . SVG Version: 6.00 Build 0)  -->
<!DOCTYPE svg PUBLIC "-//W3C//DTD SVG 1.1//EN" "http://www.w3.org/Graphics/SVG/1.1/DTD/svg11.dtd">
<svg version="1.1" id="Layer_1" xmlns="http://www.w3.org/2000/svg" xmlns:xlink="http://www.w3.org/1999/xlink" x="0px" y="0px"
	 width="39.375px" height="32px" viewBox="0 0 39.375 32" enable-background="new 0 0 39.375 32" xml:space="preserve">
<path d="M39.375,3.787c-1.449,0.643-3.006,1.077-4.641,1.272c1.668-0.999,2.951-2.583,3.553-4.47
	c-1.561,0.926-3.289,1.599-5.129,1.961C31.684,0.98,29.584,0,27.262,0c-4.463,0-8.078,3.617-8.078,8.078
	c0,0.634,0.07,1.25,0.209,1.842C12.678,9.583,6.726,6.367,2.741,1.479C2.046,2.672,1.647,4.06,1.647,5.54
	c0,2.803,1.426,5.276,3.594,6.725c-1.323-0.043-2.569-0.405-3.659-1.012c0,0.034,0,0.067,0,0.102c0,3.915,2.785,7.18,6.48,7.922
	C7.384,19.461,6.67,19.56,5.933,19.56c-0.521,0-1.027-0.051-1.52-0.145c1.028,3.209,4.011,5.545,7.546,5.61
	c-2.764,2.166-6.248,3.458-10.032,3.458c-0.652,0-1.296-0.038-1.928-0.113C3.576,30.662,7.822,32,12.385,32
	c14.859,0,22.984-12.31,22.984-22.985c0-0.351-0.008-0.699-0.023-1.045C36.922,6.829,38.291,5.408,39.375,3.787z"/>
</svg>
